<?xml version="1.0" encoding="UTF-8" standalone="no"?>
<!-- Created with Inkscape (http://www.inkscape.org/) -->

<svg
   xmlns:dc="http://purl.org/dc/elements/1.1/"
   xmlns:cc="http://creativecommons.org/ns#"
   xmlns:rdf="http://www.w3.org/1999/02/22-rdf-syntax-ns#"
   xmlns:svg="http://www.w3.org/2000/svg"
   xmlns="http://www.w3.org/2000/svg"
   xmlns:sodipodi="http://sodipodi.sourceforge.net/DTD/sodipodi-0.dtd"
   xmlns:inkscape="http://www.inkscape.org/namespaces/inkscape"
   width="48"
   height="48"
   viewBox="0 0 12.7 12.7"
   version="1.1"
   id="svg8"
   inkscape:version="0.92.2 (5c3e80d, 2017-08-06)"
   sodipodi:docname="boot.svg">
  <defs
     id="defs2" />
  <sodipodi:namedview
     id="base"
     pagecolor="#ffffff"
     bordercolor="#666666"
     borderopacity="1.0"
     inkscape:pageopacity="0.0"
     inkscape:pageshadow="2"
     inkscape:zoom="11.2"
     inkscape:cx="1.1379963"
     inkscape:cy="18.12266"
     inkscape:document-units="mm"
     inkscape:current-layer="layer1"
     showgrid="false"
     units="px"
     inkscape:window-width="2560"
     inkscape:window-height="1017"
     inkscape:window-x="-8"
     inkscape:window-y="-8"
     inkscape:window-maximized="1" />
  <metadata
     id="metadata5">
    <rdf:RDF>
      <cc:Work
         rdf:about="">
        <dc:format>image/svg+xml</dc:format>
        <dc:type
           rdf:resource="http://purl.org/dc/dcmitype/StillImage" />
        <dc:title></dc:title>
      </cc:Work>
    </rdf:RDF>
  </metadata>
  <g
     inkscape:label="Layer 1"
     inkscape:groupmode="layer"
     id="layer1"
     transform="translate(0,-284.3)"
     style="opacity:1">
    <path
       style="fill:none;fill-opacity:1;stroke:#000000;stroke-width:0.482;stroke-miterlimit:4;stroke-dasharray:none;stroke-opacity:1"
       d="m 3.151678,284.79002 c -1.4142511,3.4e-4 -2.87524062,0.4574 -2.64769549,1.23157 0.74256479,2.58837 0.95751119,5.35233 1.03295089,8.16308 -0.010771,0.0851 -0.01643,0.17068 -0.016997,0.25642 8.6e-6,1.18167 0.9510218,2.13973 2.124178,2.13972 0.696281,-2.3e-4 0.026746,-0.25168 0.6628953,-0.5886 0.075028,-0.0254 0.1675431,-0.0495 0.2675862,-0.0728 0.047379,0.29435 0.1768585,0.49208 0.3224633,0.49244 0.1662686,-5.8e-4 0.3081738,-0.2571 0.336061,-0.60754 0.1759944,-0.0245 0.3635016,-0.0456 0.55994,-0.0651 0.027053,0.33591 0.1533451,0.57952 0.3006097,0.57985 0.1555221,-1.3e-4 0.2862845,-0.27085 0.304009,-0.62939 0.1975222,-0.0132 0.392487,-0.0245 0.5910207,-0.0321 0.022881,0.34624 0.1511139,0.60209 0.3020666,0.60268 0.1535287,-5.8e-4 0.2831264,-0.26496 0.3030378,-0.61822 0.2302438,-10e-4 0.4521955,0.001 0.657553,0.01 0.026463,0.33768 0.1531881,0.58316 0.3010954,0.58325 0.1403151,-2.1e-4 0.2626024,-0.22177 0.2967244,-0.5376 0.1580055,0.0196 0.2951703,0.044 0.4001652,0.0748 0.6136717,0.37738 -0.025742,0.37775 0.6133602,0.37783 1.3091618,0 2.3708748,-1.06173 2.3708818,-2.37089 0.01638,-0.63954 -0.296338,-2.11518 -1.881013,-2.32488 -0.889453,-0.11927 -1.8772748,0.41085 -2.3799697,0.76502 -0.8631078,0.51899 -1.8216865,0.98445 -2.8200967,0.42104 -0.2005085,-2.28049 0.545009,-4.64884 1.3094864,-6.46404 -0.1156591,-0.64418 -1.9692502,-1.38583 -3.3103128,-1.38628 z"
       id="path10"
       inkscape:connector-curvature="0"
       sodipodi:nodetypes="cccccccccccccccccccccccccc" />
    <ellipse
       style="fill:none;fill-opacity:1;stroke:#000000;stroke-width:0.51742619;stroke-miterlimit:4;stroke-dasharray:none;stroke-opacity:1"
       id="path4776"
       cx="4.6538324"
       cy="288.66089"
       rx="0.73961574"
       ry="0.078157447" />
    <ellipse
       style="opacity:1;fill:none;fill-opacity:1;stroke:#000000;stroke-width:0.47238845;stroke-miterlimit:4;stroke-dasharray:none;stroke-opacity:1"
       id="path4776-0"
       cx="4.3821616"
       cy="290.68073"
       rx="0.73851115"
       ry="0.065241076" />
    <ellipse
       style="opacity:1;fill:none;fill-opacity:1;stroke:#000000;stroke-width:0.47238845;stroke-miterlimit:4;stroke-dasharray:none;stroke-opacity:1"
       id="path4776-0-7"
       cx="4.4175968"
       cy="289.67673"
       rx="0.73851115"
       ry="0.065241076" />
    <path
       style="fill:none;stroke:#000000;stroke-width:0.26458332px;stroke-linecap:butt;stroke-linejoin:miter;stroke-opacity:1"
       d="m 9.8273808,292.32254 c 0.5542392,-0.009 1.1392692,-0.0842 1.2047992,0.94494"
       id="path4810"
       inkscape:connector-curvature="0"
       sodipodi:nodetypes="cc" />
  </g>
</svg>
